<svg width="30" height="31" viewBox="0 0 30 31" fill="none" xmlns="http://www.w3.org/2000/svg">
<path d="M0.421972 3.38663C-0.140657 2.83417 -0.140657 1.9147 0.421972 1.34293C1.00427 0.790475 1.921 0.790475 2.50331 1.34293L14.9926 13.627L27.5029 1.34293C28.0655 0.790475 29.002 0.790475 29.5633 1.34293C30.1456 1.9147 30.1456 2.83546 29.5633 3.38663L17.074 15.6514L29.5633 27.9355C30.1456 28.4879 30.1456 29.4074 29.5633 29.9792C29.0006 30.5316 28.0642 30.5316 27.5029 29.9792L14.9926 17.6951L2.50331 29.9792C1.921 30.5316 1.00427 30.5316 0.421972 29.9792C-0.140657 29.4074 -0.140657 28.4866 0.421972 27.9355L12.9113 15.6514L0.421972 3.38663Z" fill="#018BB2"/>
</svg>
